<svg xmlns="http://www.w3.org/2000/svg" width="53" height="71" viewBox="0 0 53 71" fill="none"><g clip-path="url(#clip0_1_3)"><path d="M0.685098 0C3.38264 0.789759 5.81199 1.96918 7.95226 3.71221C8.71503 4.33497 9.38202 5.3213 10.2353 5.51787C11.0225 5.69183 11.9855 4.97165 12.898 4.76464C19.3258 3.30863 25.8024 2.43886 32.4026 3.45476C35.1227 3.87399 37.8272 4.37498 40.537 4.85858C40.9066 4.9109 41.2616 5.03818 41.5801 5.23258C42.4108 5.80142 42.9733 5.51265 43.649 4.88467C45.8701 2.78474 48.53 1.20318 51.4369 0.253974C51.6302 0.19135 51.82 0.118285 52.0168 0.0660987C52.1412 0.053077 52.2667 0.053077 52.3912 0.0660987C52.5653 1.75173 52.7029 3.44606 52.8997 5.13517C53.302 8.59167 52.3894 11.8429 51.1356 14.9637C49.5195 19.0012 49.0685 23.15 49.4167 27.4137C49.7006 30.8023 48.4485 33.4743 45.8938 35.5722C43.339 37.6701 41.5018 40.2186 39.9727 43.094C38.8147 45.2615 37.4633 47.3298 36.1032 49.3808C34.8842 51.2091 33.1688 52.2632 30.9153 52.472C27.6954 52.7677 24.4893 52.7938 21.285 52.3398C19.8117 52.1293 18.523 51.4891 17.6697 50.2871C16.179 48.1892 14.6395 46.0965 13.4344 43.8351C11.6512 40.4899 9.49695 37.5414 6.57302 35.0747C4.60515 33.4134 3.44185 31.1902 3.54634 28.4383C3.62993 26.0377 3.8093 23.5901 3.44882 21.24C3.05176 18.662 2.16186 16.1466 1.35034 13.6486C-0.163004 8.99351 -0.429445 4.73855 0.685098 0Z" fill="#0EBE88"></path><path d="M23.6318 60.7575C25.4516 59.3658 27.2889 59.3049 29.2045 60.7436C32.2556 57.4384 36.3289 56.593 40.5241 56.0381C41.8772 55.8641 42.633 56.4121 43.0893 57.6976C44.4407 61.5246 44.1881 65.3969 43.5368 69.2865C43.3627 70.3685 42.6191 70.92 41.4297 70.9774C36.7521 71.2035 32.6282 69.8449 29.1401 66.6528C27.2976 67.9853 25.483 67.9592 23.6649 66.5798C20.1628 69.8049 16.032 71.2105 11.3126 70.9513C10.1841 70.8887 9.39699 70.3598 9.22285 69.3422C8.53671 65.3638 8.29115 61.3994 9.72439 57.5132C10.0918 56.5164 10.7275 55.925 11.7097 56.0241C15.4887 56.4051 19.198 57.0418 22.2578 59.5676C22.6931 59.9277 23.1198 60.3156 23.6318 60.7575Z" fill="#0EBE88"></path></g><defs><clipPath id="clip0_1_3"><rect width="53" height="71" fill="white"></rect></clipPath></defs></svg>