<svg xmlns="http://www.w3.org/2000/svg" width="373" height="62" viewBox="0 0 373 62" fill="none"><path d="M0 31C0 13.8792 13.8792 0 31 0H342C359.121 0 373 13.8792 373 31V31C373 48.1208 359.121 62 342 62H31C13.8792 62 0 48.1208 0 31V31Z" fill="#0EBE88" fill-opacity="0.5"></path><path d="M131.082 26.0909L133.718 34.3793H133.82L136.462 26.0909H139.018L135.258 37H132.285L128.519 26.0909H131.082ZM143.095 37.1598C142.253 37.1598 141.529 36.9893 140.921 36.6484C140.318 36.304 139.852 35.8175 139.526 35.1889C139.199 34.5568 139.036 33.8093 139.036 32.9464C139.036 32.1048 139.199 31.3661 139.526 30.7305C139.852 30.0948 140.312 29.5994 140.905 29.2443C141.502 28.8892 142.202 28.7116 143.004 28.7116C143.544 28.7116 144.046 28.7987 144.512 28.9727C144.98 29.1431 145.389 29.4006 145.737 29.745C146.088 30.0895 146.362 30.5227 146.557 31.0447C146.752 31.5632 146.85 32.1705 146.85 32.8665V33.4897H139.941V32.0835H144.714C144.714 31.7567 144.643 31.4673 144.501 31.2152C144.359 30.9631 144.162 30.766 143.91 30.6239C143.661 30.4783 143.372 30.4055 143.041 30.4055C142.697 30.4055 142.392 30.4854 142.125 30.6452C141.862 30.8015 141.656 31.0128 141.507 31.2791C141.358 31.5419 141.282 31.8349 141.278 32.158V33.495C141.278 33.8999 141.353 34.2496 141.502 34.5444C141.655 34.8391 141.87 35.0664 142.147 35.2262C142.424 35.386 142.752 35.4659 143.132 35.4659C143.384 35.4659 143.615 35.4304 143.824 35.3594C144.034 35.2884 144.213 35.1818 144.362 35.0398C144.512 34.8977 144.625 34.7237 144.703 34.5178L146.802 34.6562C146.696 35.1605 146.477 35.6009 146.147 35.9773C145.82 36.3501 145.398 36.6413 144.879 36.8509C144.364 37.0568 143.769 37.1598 143.095 37.1598ZM148.331 37V28.8182H150.531V30.2457H150.616C150.765 29.7379 151.015 29.3544 151.367 29.0952C151.719 28.8324 152.123 28.701 152.582 28.701C152.695 28.701 152.818 28.7081 152.949 28.7223C153.08 28.7365 153.196 28.756 153.295 28.7809V30.7944C153.189 30.7624 153.041 30.734 152.853 30.7092C152.665 30.6843 152.493 30.6719 152.337 30.6719C152.003 30.6719 151.704 30.7447 151.442 30.8903C151.182 31.0323 150.976 31.2312 150.824 31.4869C150.675 31.7425 150.6 32.0373 150.6 32.3711V37H148.331ZM161.637 37.1598C160.799 37.1598 160.078 36.9822 159.474 36.6271C158.874 36.2685 158.413 35.7713 158.089 35.1357C157.77 34.5 157.61 33.7685 157.61 32.9411C157.61 32.103 157.772 31.3679 158.095 30.7358C158.421 30.1001 158.885 29.6048 159.485 29.2496C160.085 28.891 160.799 28.7116 161.626 28.7116C162.34 28.7116 162.965 28.8413 163.501 29.1005C164.038 29.3597 164.462 29.7237 164.774 30.1925C165.087 30.6612 165.259 31.2116 165.291 31.8438H163.15C163.089 31.4354 162.93 31.1069 162.67 30.8583C162.415 30.6062 162.079 30.4801 161.664 30.4801C161.312 30.4801 161.005 30.576 160.742 30.7678C160.483 30.956 160.28 31.2312 160.135 31.5934C159.989 31.9556 159.916 32.3942 159.916 32.9091C159.916 33.4311 159.987 33.875 160.129 34.2408C160.275 34.6065 160.479 34.8853 160.742 35.0771C161.005 35.2688 161.312 35.3647 161.664 35.3647C161.923 35.3647 162.155 35.3114 162.361 35.2049C162.571 35.0984 162.743 34.9439 162.878 34.7415C163.017 34.5355 163.107 34.2887 163.15 34.0011H165.291C165.256 34.6261 165.085 35.1765 164.78 35.6523C164.478 36.1246 164.061 36.494 163.528 36.7603C162.995 37.0266 162.365 37.1598 161.637 37.1598ZM171.991 33.5163V28.8182H174.26V37H172.081V35.5138H171.996C171.811 35.9933 171.504 36.3786 171.075 36.6697C170.648 36.9609 170.128 37.1065 169.514 37.1065C168.967 37.1065 168.486 36.9822 168.07 36.7337C167.655 36.4851 167.33 36.1317 167.095 35.6737C166.865 35.2156 166.747 34.6669 166.744 34.0277V28.8182H169.013V33.6229C169.017 34.1058 169.146 34.4876 169.402 34.7681C169.658 35.0487 170 35.1889 170.43 35.1889C170.703 35.1889 170.959 35.1268 171.197 35.0025C171.435 34.8746 171.627 34.6864 171.772 34.4379C171.921 34.1893 171.994 33.8821 171.991 33.5163ZM176.075 37V28.8182H178.275V30.2457H178.36C178.509 29.7379 178.76 29.3544 179.111 29.0952C179.463 28.8324 179.868 28.701 180.326 28.701C180.439 28.701 180.562 28.7081 180.693 28.7223C180.825 28.7365 180.94 28.756 181.039 28.7809V30.7944C180.933 30.7624 180.786 30.734 180.597 30.7092C180.409 30.6843 180.237 30.6719 180.081 30.6719C179.747 30.6719 179.449 30.7447 179.186 30.8903C178.927 31.0323 178.721 31.2312 178.568 31.4869C178.419 31.7425 178.344 32.0373 178.344 32.3711V37H176.075ZM189.02 31.1513L186.943 31.2791C186.907 31.1016 186.831 30.9418 186.714 30.7997C186.597 30.6541 186.442 30.5387 186.25 30.4535C186.062 30.3647 185.837 30.3203 185.574 30.3203C185.222 30.3203 184.926 30.3949 184.684 30.544C184.443 30.6896 184.322 30.8849 184.322 31.13C184.322 31.3253 184.4 31.4904 184.556 31.6254C184.713 31.7603 184.981 31.8686 185.361 31.9503L186.842 32.2486C187.637 32.4119 188.23 32.6747 188.621 33.0369C189.011 33.3991 189.207 33.875 189.207 34.4645C189.207 35.0007 189.049 35.4712 188.733 35.8761C188.42 36.2809 187.99 36.5969 187.443 36.8242C186.9 37.0479 186.273 37.1598 185.563 37.1598C184.48 37.1598 183.617 36.9343 182.974 36.4833C182.335 36.0288 181.961 35.4109 181.85 34.6296L184.082 34.5124C184.15 34.8427 184.313 35.0948 184.572 35.2688C184.832 35.4393 185.164 35.5245 185.568 35.5245C185.966 35.5245 186.286 35.4482 186.527 35.2955C186.772 35.1392 186.897 34.9386 186.9 34.6935C186.897 34.4876 186.81 34.3189 186.639 34.1875C186.469 34.0526 186.206 33.9496 185.851 33.8786L184.434 33.5962C183.635 33.4364 183.04 33.1594 182.649 32.7653C182.262 32.3711 182.069 31.8686 182.069 31.2578C182.069 30.7322 182.211 30.2795 182.495 29.8995C182.783 29.5195 183.186 29.2266 183.704 29.0206C184.226 28.8146 184.837 28.7116 185.537 28.7116C186.57 28.7116 187.383 28.93 187.976 29.3668C188.573 29.8036 188.921 30.3984 189.02 31.1513ZM194.332 37.1598C193.505 37.1598 192.789 36.984 192.186 36.6325C191.585 36.2773 191.122 35.7837 190.795 35.1516C190.469 34.516 190.305 33.7791 190.305 32.9411C190.305 32.0959 190.469 31.3572 190.795 30.7251C191.122 30.0895 191.585 29.5959 192.186 29.2443C192.789 28.8892 193.505 28.7116 194.332 28.7116C195.16 28.7116 195.873 28.8892 196.474 29.2443C197.077 29.5959 197.542 30.0895 197.869 30.7251C198.196 31.3572 198.359 32.0959 198.359 32.9411C198.359 33.7791 198.196 34.516 197.869 35.1516C197.542 35.7837 197.077 36.2773 196.474 36.6325C195.873 36.984 195.16 37.1598 194.332 37.1598ZM194.343 35.402C194.719 35.402 195.034 35.2955 195.286 35.0824C195.538 34.8658 195.728 34.571 195.856 34.1982C195.987 33.8253 196.053 33.4009 196.053 32.9251C196.053 32.4492 195.987 32.0249 195.856 31.652C195.728 31.2791 195.538 30.9844 195.286 30.7678C195.034 30.5511 194.719 30.4428 194.343 30.4428C193.963 30.4428 193.643 30.5511 193.384 30.7678C193.128 30.9844 192.935 31.2791 192.803 31.652C192.676 32.0249 192.612 32.4492 192.612 32.9251C192.612 33.4009 192.676 33.8253 192.803 34.1982C192.935 34.571 193.128 34.8658 193.384 35.0824C193.643 35.2955 193.963 35.402 194.343 35.402ZM206.992 40.2386C206.257 40.2386 205.627 40.1374 205.102 39.935C204.58 39.7362 204.164 39.4645 203.855 39.12C203.546 38.7756 203.345 38.3885 203.253 37.9588L205.352 37.6765C205.416 37.8398 205.517 37.9925 205.655 38.1346C205.794 38.2766 205.977 38.3903 206.204 38.4755C206.435 38.5643 206.716 38.6087 207.046 38.6087C207.539 38.6087 207.946 38.4879 208.266 38.2464C208.589 38.0085 208.75 37.609 208.75 37.0479V35.5511H208.654C208.555 35.7784 208.406 35.9933 208.207 36.1957C208.008 36.3981 207.752 36.5632 207.44 36.6911C207.127 36.8189 206.755 36.8828 206.321 36.8828C205.707 36.8828 205.148 36.7408 204.643 36.4567C204.143 36.169 203.743 35.7305 203.445 35.141C203.15 34.5479 203.003 33.7987 203.003 32.8931C203.003 31.9663 203.154 31.1921 203.456 30.5707C203.757 29.9492 204.159 29.484 204.659 29.1751C205.164 28.8661 205.716 28.7116 206.316 28.7116C206.774 28.7116 207.158 28.7898 207.467 28.946C207.776 29.0987 208.024 29.2905 208.212 29.5213C208.404 29.7486 208.551 29.9723 208.654 30.1925H208.74V28.8182H210.993V37.0799C210.993 37.7759 210.822 38.3583 210.481 38.8271C210.141 39.2958 209.668 39.6474 209.065 39.8817C208.464 40.1197 207.774 40.2386 206.992 40.2386ZM207.04 35.1783C207.406 35.1783 207.715 35.0877 207.967 34.9066C208.223 34.7219 208.418 34.4592 208.553 34.1183C208.692 33.7738 208.761 33.3619 208.761 32.8825C208.761 32.4031 208.693 31.9876 208.559 31.636C208.424 31.2809 208.228 31.0057 207.973 30.8104C207.717 30.6151 207.406 30.5174 207.04 30.5174C206.668 30.5174 206.353 30.6186 206.098 30.821C205.842 31.0199 205.648 31.2969 205.517 31.652C205.386 32.0071 205.32 32.4173 205.32 32.8825C205.32 33.3548 205.386 33.7631 205.517 34.1076C205.652 34.4485 205.845 34.7131 206.098 34.9013C206.353 35.0859 206.668 35.1783 207.04 35.1783ZM212.799 37V28.8182H214.999V30.2457H215.084C215.233 29.7379 215.483 29.3544 215.835 29.0952C216.186 28.8324 216.591 28.701 217.049 28.701C217.163 28.701 217.285 28.7081 217.417 28.7223C217.548 28.7365 217.664 28.756 217.763 28.7809V30.7944C217.657 30.7624 217.509 30.734 217.321 30.7092C217.133 30.6843 216.961 30.6719 216.804 30.6719C216.47 30.6719 216.172 30.7447 215.909 30.8903C215.65 31.0323 215.444 31.2312 215.292 31.4869C215.142 31.7425 215.068 32.0373 215.068 32.3711V37H212.799ZM221.035 37.1545C220.513 37.1545 220.048 37.0639 219.639 36.8828C219.231 36.6982 218.908 36.4265 218.67 36.0678C218.436 35.7056 218.318 35.2546 218.318 34.7148C218.318 34.2603 218.402 33.8786 218.569 33.5696C218.736 33.2607 218.963 33.0121 219.251 32.8239C219.538 32.6357 219.865 32.4936 220.231 32.3977C220.6 32.3018 220.987 32.2344 221.392 32.1953C221.868 32.1456 222.251 32.0994 222.542 32.0568C222.834 32.0107 223.045 31.9432 223.176 31.8544C223.308 31.7656 223.373 31.6342 223.373 31.4602V31.4283C223.373 31.0909 223.267 30.8299 223.054 30.6452C222.844 30.4606 222.546 30.3683 222.159 30.3683C221.751 30.3683 221.426 30.4588 221.184 30.6399C220.943 30.8175 220.783 31.0412 220.705 31.3111L218.606 31.1406C218.713 30.6435 218.922 30.2138 219.235 29.8516C219.547 29.4858 219.95 29.2053 220.444 29.0099C220.941 28.8111 221.516 28.7116 222.17 28.7116C222.624 28.7116 223.059 28.7649 223.475 28.8714C223.894 28.978 224.265 29.1431 224.588 29.3668C224.915 29.5906 225.172 29.8782 225.36 30.2298C225.549 30.5778 225.643 30.995 225.643 31.4815V37H223.491V35.8654H223.427C223.295 36.1211 223.12 36.3466 222.899 36.5419C222.679 36.7337 222.415 36.8846 222.106 36.9947C221.797 37.1012 221.44 37.1545 221.035 37.1545ZM221.685 35.5884C222.019 35.5884 222.313 35.5227 222.569 35.3913C222.825 35.2564 223.025 35.0753 223.171 34.848C223.317 34.6207 223.389 34.3633 223.389 34.0756V33.2074C223.318 33.2536 223.221 33.2962 223.096 33.3352C222.976 33.3707 222.839 33.4045 222.686 33.4364C222.534 33.4648 222.381 33.4915 222.228 33.5163C222.076 33.5376 221.937 33.5572 221.813 33.5749C221.546 33.614 221.314 33.6761 221.115 33.7614C220.916 33.8466 220.762 33.962 220.652 34.1076C220.541 34.2496 220.486 34.4272 220.486 34.6403C220.486 34.9492 220.598 35.1854 220.822 35.3487C221.049 35.5085 221.337 35.5884 221.685 35.5884ZM231.755 28.8182V30.5227H226.828V28.8182H231.755ZM227.946 26.858H230.216V34.4858C230.216 34.6953 230.248 34.8587 230.311 34.9759C230.375 35.0895 230.464 35.1694 230.578 35.2156C230.695 35.2617 230.83 35.2848 230.983 35.2848C231.089 35.2848 231.196 35.2759 231.302 35.2582C231.409 35.2369 231.49 35.2209 231.547 35.2102L231.904 36.8988C231.791 36.9343 231.631 36.9751 231.425 37.0213C231.219 37.071 230.968 37.1012 230.674 37.1119C230.127 37.1332 229.647 37.0604 229.235 36.8935C228.827 36.7266 228.509 36.4673 228.282 36.1158C228.055 35.7642 227.943 35.3203 227.946 34.7841V26.858ZM233.233 37V28.8182H235.502V37H233.233ZM234.373 27.7635C234.036 27.7635 233.746 27.6516 233.505 27.4279C233.267 27.2006 233.148 26.929 233.148 26.6129C233.148 26.3004 233.267 26.0323 233.505 25.8086C233.746 25.5813 234.036 25.4677 234.373 25.4677C234.71 25.4677 234.998 25.5813 235.236 25.8086C235.477 26.0323 235.598 26.3004 235.598 26.6129C235.598 26.929 235.477 27.2006 235.236 27.4279C234.998 27.6516 234.71 27.7635 234.373 27.7635ZM244.128 31.1513L242.05 31.2791C242.015 31.1016 241.938 30.9418 241.821 30.7997C241.704 30.6541 241.549 30.5387 241.358 30.4535C241.17 30.3647 240.944 30.3203 240.681 30.3203C240.33 30.3203 240.033 30.3949 239.792 30.544C239.55 30.6896 239.429 30.8849 239.429 31.13C239.429 31.3253 239.508 31.4904 239.664 31.6254C239.82 31.7603 240.088 31.8686 240.468 31.9503L241.949 32.2486C242.744 32.4119 243.337 32.6747 243.728 33.0369C244.119 33.3991 244.314 33.875 244.314 34.4645C244.314 35.0007 244.156 35.4712 243.84 35.8761C243.527 36.2809 243.098 36.5969 242.551 36.8242C242.008 37.0479 241.381 37.1598 240.671 37.1598C239.587 37.1598 238.725 36.9343 238.082 36.4833C237.443 36.0288 237.068 35.4109 236.958 34.6296L239.19 34.5124C239.257 34.8427 239.421 35.0948 239.68 35.2688C239.939 35.4393 240.271 35.5245 240.676 35.5245C241.074 35.5245 241.393 35.4482 241.635 35.2955C241.88 35.1392 242.004 34.9386 242.008 34.6935C242.004 34.4876 241.917 34.3189 241.747 34.1875C241.576 34.0526 241.313 33.9496 240.958 33.8786L239.541 33.5962C238.742 33.4364 238.148 33.1594 237.757 32.7653C237.37 32.3711 237.176 31.8686 237.176 31.2578C237.176 30.7322 237.318 30.2795 237.602 29.8995C237.89 29.5195 238.293 29.2266 238.812 29.0206C239.334 28.8146 239.944 28.7116 240.644 28.7116C241.677 28.7116 242.491 28.93 243.084 29.3668C243.68 29.8036 244.028 30.3984 244.128 31.1513Z" fill="white"></path><g filter="url(#filter0_b_200_8)"><circle cx="33" cy="31" r="24" fill="#222222" fill-opacity="0.5"></circle></g><path d="M39.5 28.4019C41.5 29.5566 41.5 32.4434 39.5 33.5981L32 37.9282C30 39.0829 27.5 37.6395 27.5 35.3301L27.5 26.6699C27.5 24.3605 30 22.9171 32 24.0718L39.5 28.4019Z" fill="white"></path><defs><filter id="filter0_b_200_8" x="5" y="3" width="56" height="56" filterUnits="userSpaceOnUse" color-interpolation-filters="sRGB"><feGaussianBlur stdDeviation="2"></feGaussianBlur></filter></defs></svg>