<svg xmlns="http://www.w3.org/2000/svg" width="70" height="58" viewBox="0 0 70 58" fill="none"><path d="M22.2277 26.2852C20.5172 25.7927 18.8067 25.5428 17.1428 25.5428C14.5734 25.5428 12.4294 26.13 10.767 26.8491C12.3697 20.9817 16.2198 10.8576 23.8894 9.71753C24.5997 9.6119 25.1818 9.0983 25.3756 8.40695L27.0518 2.41135C27.1932 1.90431 27.1094 1.36158 26.8202 0.921559C26.531 0.481542 26.0662 0.187954 25.5453 0.116561C24.9793 0.0393392 24.4023 0 23.8304 0C14.6244 0 5.50724 9.60898 1.66004 23.3675C-0.598301 31.4394 -1.26051 43.5748 4.3023 51.2132C7.41517 55.4873 11.9566 57.7697 17.8006 57.9978C17.8247 57.9985 17.848 57.9992 17.872 57.9992C25.0827 57.9992 31.4767 53.143 33.4218 46.1909C34.5838 42.0348 34.0585 37.6761 31.9415 33.9148C29.8471 30.1958 26.3976 27.485 22.2277 26.2852Z" fill="#377B66"></path><path d="M67.3647 33.9156C65.2703 30.1958 61.8208 27.485 57.6509 26.2852C55.9404 25.7927 54.2299 25.5428 52.5667 25.5428C49.9973 25.5428 47.8526 26.13 46.1902 26.8491C47.7929 20.9817 51.643 10.8576 59.3133 9.71753C60.0236 9.6119 60.605 9.0983 60.7995 8.40695L62.4758 2.41135C62.6171 1.90431 62.5333 1.36158 62.2441 0.921559C61.9556 0.481542 61.4908 0.187954 60.9692 0.116561C60.4039 0.0393392 59.8269 0 59.2543 0C50.0483 0 40.9312 9.60898 37.0832 23.3675C34.8256 31.4394 34.1634 43.5748 39.727 51.2146C42.8391 55.4881 47.3813 57.7712 53.2246 57.9985C53.2486 57.9992 53.2719 57.9999 53.2967 57.9999C60.5066 57.9999 66.9014 53.1437 68.8465 46.1916C70.007 42.0355 69.481 37.6761 67.3647 33.9156Z" fill="#377B66"></path></svg>