<svg xmlns="http://www.w3.org/2000/svg" width="22" height="24" viewBox="0 0 22 24" fill="none"><rect y="1" width="22" height="22" rx="5" fill="white"></rect><path d="M6.2642 19V4.45455H12.0028C13.1013 4.45455 14.0388 4.65104 14.8153 5.04403C15.5966 5.43229 16.1908 5.9839 16.598 6.69886C17.0099 7.40909 17.2159 8.24479 17.2159 9.20597C17.2159 10.1719 17.0076 11.0028 16.5909 11.6989C16.1742 12.3902 15.5705 12.9205 14.7798 13.2898C13.9938 13.6591 13.0421 13.8438 11.9247 13.8438H8.08239V11.3722H11.4276C12.0147 11.3722 12.5024 11.2917 12.8906 11.1307C13.2789 10.9697 13.5677 10.7282 13.7571 10.4062C13.9512 10.0843 14.0483 9.68419 14.0483 9.20597C14.0483 8.72301 13.9512 8.31581 13.7571 7.98438C13.5677 7.65294 13.2765 7.40199 12.8835 7.23153C12.4953 7.05634 12.0052 6.96875 11.4134 6.96875H9.33949V19H6.2642ZM14.1193 12.3807L17.7344 19H14.3395L10.8026 12.3807H14.1193Z" fill="#222222"></path></svg>