<svg xmlns="http://www.w3.org/2000/svg" width="22" height="24" viewBox="0 0 22 24" fill="none"><rect y="1" width="22" height="22" rx="5" fill="#0EBE88"></rect><path d="M6.2642 19V4.45455H12.0028C13.1061 4.45455 14.0459 4.66525 14.8224 5.08665C15.599 5.50331 16.1908 6.08333 16.598 6.8267C17.0099 7.56534 17.2159 8.41761 17.2159 9.38352C17.2159 10.3494 17.0076 11.2017 16.5909 11.9403C16.1742 12.679 15.5705 13.2543 14.7798 13.6662C13.9938 14.0781 13.0421 14.2841 11.9247 14.2841H8.26705V11.8196H11.4276C12.0194 11.8196 12.5071 11.7178 12.8906 11.5142C13.2789 11.3059 13.5677 11.0194 13.7571 10.6548C13.9512 10.2855 14.0483 9.86174 14.0483 9.38352C14.0483 8.90057 13.9512 8.47917 13.7571 8.11932C13.5677 7.75473 13.2789 7.47301 12.8906 7.27415C12.5024 7.07055 12.0099 6.96875 11.4134 6.96875H9.33949V19H6.2642Z" fill="#222222"></path></svg>