<svg xmlns="http://www.w3.org/2000/svg" width="606" height="86" viewBox="0 0 606 86" fill="none"><path d="M56.2469 32.5668C55.5933 24.9853 50.6449 19.8501 41.9056 19.8501C30.4774 19.8501 24.2963 28.496 24.2963 43.0054C24.2963 58.3364 30.6828 66.1606 41.7375 66.1606C50.0473 66.1606 55.1078 61.7162 56.2469 54.5829L79.2528 54.751C78.1137 68.943 65.7144 85.8986 41.252 85.8986C18.2461 85.8986 0.973022 70.773 0.973022 42.9493C0.973022 15.1256 18.7503 0 41.252 0C62.2972 0 77.4602 11.7457 79.2528 32.4547L56.2469 32.5668Z" fill="#0EBE88"></path><path d="M158.933 1.25125H194.992C213.535 1.25125 225.971 11.8579 225.971 29.6352C225.971 41.2128 220.668 49.3172 211.779 53.6121L228.754 84.7597H204.123L189.446 57.1974H181.603V84.7597H158.933V1.25125ZM189.595 39.5882C197.55 39.5882 202.331 36.7685 202.331 29.6352C202.331 22.5018 197.55 19.346 189.595 19.346H181.603V39.5882H189.595Z" fill="#0EBE88"></path><path d="M269.369 18.7112C262.348 18.7112 259.285 21.4001 259.248 25.0601C259.042 29.0563 262.59 31.3905 270.452 33.0525L277.305 34.5277C295.736 38.4865 303.317 47.4125 303.448 60.1292C303.448 76.5993 290.694 85.7308 269.518 85.7308C247.745 85.7308 233.553 76.3939 233.478 55.4047H255.009C255.382 63.0609 260.518 67.1505 269.201 67.1505C276.465 67.1505 280.2 64.2561 280.293 60.1292C280.293 56.3945 277.025 54.0043 267.726 51.9689L259.491 50.1948C244.682 47.0203 235.626 39.7563 235.682 26.7221C235.551 10.8122 249.575 0.13089 269.444 0.13089C289.667 0.13089 302.309 10.9803 302.384 27.357H280.61C280.162 21.923 276.708 18.7112 269.369 18.7112Z" fill="#0EBE88"></path><path d="M306.062 84.7597L333.625 1.25125H364.623L392.185 84.7597H367.797L362.905 68.8684H335.343L330.45 84.7597H306.062ZM357.77 51.8194L349.441 24.2385H348.788L340.478 51.8194H357.77Z" fill="#0EBE88"></path><path d="M400.178 1.25125H422.847V66.4968H456.609V84.7597H400.178V1.25125Z" fill="#0EBE88"></path><path d="M465.741 1.25125H525.926V19.5141H488.41V33.8741H522.788V52.0622H488.41V66.4222H525.758V84.6849H465.741V1.25125Z" fill="#0EBE88"></path><path d="M570.948 18.711C563.926 18.711 560.883 21.3999 560.827 25.06C560.64 29.0561 564.169 31.3904 572.031 33.0523L578.884 34.5275C597.315 38.4863 604.896 47.4123 605.027 60.1291C605.027 76.5992 592.273 85.7306 571.116 85.7306C549.342 85.7306 535.15 76.3937 535.057 55.4046H556.588C556.961 63.0608 562.096 67.1504 570.78 67.1504C578.044 67.1504 581.797 64.2559 581.872 60.1291C581.872 56.3943 578.622 54.0041 569.323 51.9687L560.995 50.1013C546.205 46.9268 537.148 39.6628 537.186 26.6286C537.055 10.7187 551.098 0.037384 570.948 0.037384C591.171 0.037384 603.813 10.8867 603.888 27.2634H582.208C581.76 21.9228 578.286 18.711 570.948 18.711Z" fill="#0EBE88"></path><path d="M89.9395 1.02255H117.55V8.17791H100.352V13.8065H116.124V20.9619H100.352V26.5906H117.478V33.7458H89.9395V1.02255Z" fill="#0EBE88"></path><path d="M122.663 1.02255H133.342V26.5906H149.25V33.7458H122.663V1.02255Z" fill="#0EBE88"></path><path d="M149.25 42.0058V56.4496C149.25 73.3271 137.245 83.8534 119.604 83.8534C101.964 83.8534 89.9395 73.3271 89.9395 56.4496V42.0058H108.593V54.6491C108.844 57.5979 110.112 60.3393 112.147 62.3354C114.183 64.3315 116.839 65.4381 119.595 65.4381C122.351 65.4381 125.007 64.3315 127.043 62.3354C129.078 60.3393 130.346 57.5979 130.597 54.6491V41.9267L149.25 42.0058Z" fill="#0EBE88"></path></svg>