<svg xmlns="http://www.w3.org/2000/svg" width="71" height="59" viewBox="0 0 71 59" fill="none"><path d="M48.0359 32.2616C49.7759 32.7625 51.5159 33.0167 53.2085 33.0167C55.8222 33.0167 58.0031 32.4194 59.6942 31.688C58.0639 37.6565 54.1474 47.9551 46.3455 49.1149C45.623 49.2224 45.0309 49.7448 44.8337 50.4481L43.1286 56.5471C42.9848 57.0628 43.07 57.6149 43.3642 58.0625C43.6584 58.5102 44.1312 58.8088 44.6611 58.8814C45.2369 58.96 45.8238 59 46.4055 59C55.7703 59 65.0447 49.2253 68.9582 35.2295C71.2555 27.0185 71.9291 14.6738 66.2704 6.90375C63.1038 2.55591 58.4841 0.234142 52.5393 0.00218762C52.5148 0.00144656 52.4911 0.000706301 52.4667 0.000706299C45.1317 0.000705658 38.6274 4.94066 36.6488 12.0127C35.4668 16.2404 36.0011 20.6742 38.1546 24.5004C40.2851 28.2835 43.794 31.041 48.0359 32.2616Z" fill="#377B66"></path><path d="M2.12059 24.4996C4.25113 28.2835 7.76005 31.041 12.0019 32.2616C13.7419 32.7625 15.4819 33.0167 17.1737 33.0167C19.7874 33.0167 21.9691 32.4194 23.6602 31.688C22.0299 37.6565 18.1134 47.9551 10.3108 49.1149C9.58824 49.2224 8.99687 49.7448 8.79901 50.4481L7.09383 56.5471C6.95007 57.0628 7.03529 57.6149 7.32949 58.0625C7.62295 58.5102 8.09574 58.8088 8.62634 58.8814C9.2014 58.96 9.78833 59 10.3708 59C19.7356 59 29.0099 49.2253 32.9242 35.2295C35.2207 27.0185 35.8944 14.6738 30.2349 6.90227C27.0691 2.55517 22.4486 0.23266 16.5045 0.00144697C16.4801 0.000705896 16.4564 -3.43585e-05 16.4312 -3.43607e-05C9.09692 -3.50019e-05 2.59191 4.93992 0.613278 12.0119C-0.567229 16.2397 -0.0321877 20.6742 2.12059 24.4996Z" fill="#377B66"></path></svg>